<mxfile host="65bd71144e">
    <diagram id="uKxqC73U2h5xjIq3QiAH" name="Page-1">
        <mxGraphModel dx="880" dy="444" grid="1" gridSize="10" guides="1" tooltips="1" connect="1" arrows="1" fold="1" page="1" pageScale="1" pageWidth="850" pageHeight="1100" math="0" shadow="0">
            <root>
                <mxCell id="0"/>
                <mxCell id="1" parent="0"/>
                <mxCell id="6" style="edgeStyle=none;html=1;exitX=1;exitY=0.5;exitDx=0;exitDy=0;fontFamily=Helvetica;fontSize=12;" edge="1" parent="1" source="2" target="5">
                    <mxGeometry relative="1" as="geometry"/>
                </mxCell>
                <mxCell id="2" value="&lt;pre&gt;database fields&lt;/pre&gt;&lt;pre&gt;&lt;ul&gt;&lt;li&gt;userId&lt;/li&gt;&lt;li&gt;followers&lt;/li&gt;&lt;li&gt;following&lt;/li&gt;&lt;li&gt;email-[unique, required]&lt;/li&gt;&lt;li&gt;password&lt;/li&gt;&lt;li&gt;forgotpassword&lt;/li&gt;&lt;li&gt;verifypassword&lt;/li&gt;&lt;/ul&gt;&lt;/pre&gt;" style="whiteSpace=wrap;html=1;aspect=fixed;fontFamily=Helvetica;spacing=12;align=left;rounded=1;gradientColor=none;glass=0;shadow=1;sketch=1;curveFitting=1;jiggle=2;arcSize=11;spacingLeft=0;spacingTop=0;" vertex="1" parent="1">
                    <mxGeometry x="21" y="20" width="269" height="269" as="geometry"/>
                </mxCell>
                <mxCell id="5" value="" style="shape=ext;double=1;whiteSpace=wrap;html=1;aspect=fixed;rounded=1;shadow=1;glass=0;sketch=1;fontFamily=Helvetica;fontSize=12;gradientColor=none;" vertex="1" parent="1">
                    <mxGeometry x="390" y="30" width="240" height="240" as="geometry"/>
                </mxCell>
            </root>
        </mxGraphModel>
    </diagram>
</mxfile>